<svg xmlns="http://www.w3.org/2000/svg" width="785" height="785" viewBox="0 0 409 371"><defs><clipPath id="a"><path fill="none" class="cls-1" d="M-1115.892-119.872h1920v2750h-1920z"/></clipPath><clipPath id="b"><rect transform="rotate(-15.12 -1131.45 224.468)" fill="none" rx=".98" height="7.46" width="12.04" y="451.498" x="151.768" class="cls-1"/></clipPath></defs><g data-name="Capa 1"><g data-name="Ilustraci贸n pago m贸vil" clip-path="url(#a)"><path stroke-width=".2" stroke="#000" opacity=".1" stroke-miterlimit="10" fill="#4a4a98" d="M3.178 286.918c-9.67-67.59 1.61-116.07 49.35-159.81 61.5-56.2 143.67-84.66 182.95-92.23 115.74-22.3 196.71 26.19 166.77 152.6-30.41 128.11-118.77 159.65-228.27 178.86-149.72 26.33-170.8-79.42-170.8-79.42z" class="cls-151" data-name="20%"/><path fill="#283897" class="cls-15" d="M326.308 268.268h3.14v89.42h-3.14zM275.988 268.268h3.14v89.42h-3.14z"/><path fill="#283897" class="cls-15" d="M273.508 268.268h3.14v89.42h-3.14zM246.408 268.268h3.14v89.42h-3.14z"/><path fill="#2a295c" d="M317.158 162.418h29.48a3.33 3.33 0 013.26 3.95l-16.85 88a3.32 3.32 0 01-3.26 2.7h-29.48a3.33 3.33 0 01-3.26-4l16.85-88a3.32 3.32 0 013.26-2.65z" class="cls-34"/><path fill="#283897" d="M311.108 162.418h31a2.6 2.6 0 012.55 3.08l-17.13 89.49a2.6 2.6 0 01-2.55 2.11h-31a2.6 2.6 0 01-2.55-3.08l17.13-89.49a2.58 2.58 0 012.55-2.11z" class="cls-15"/><path fill="#283897" d="M331.838 258.628v9.36a2.23 2.23 0 01-2.24 2.22h-91.76a2.23 2.23 0 01-2.24-2.22v-9.36a2.24 2.24 0 012.24-2.24h91.76a2.24 2.24 0 012.24 2.24z" class="cls-15"/><path fill="#2a295c" d="M331.838 258.628v9.36a2.23 2.23 0 01-2.24 2.22h-52.25a2.21 2.21 0 01-2.22-2.22v-9.36a2.23 2.23 0 012.22-2.24h52.25a2.24 2.24 0 012.24 2.24z" class="cls-34"/><path fill="#2b3c8f" d="M224.998 329.848c-.38 3.67-2.63 20.94-17.2 23.18a1.21 1.21 0 00-1 1.2v2a1.22 1.22 0 001.22 1.22h9.38a1.27 1.27 0 00.75-.25l10.42-8.12a1.22 1.22 0 012 1v6.45a1.22 1.22 0 001.22 1.22 1.21 1.21 0 001.19-1l2.49-12.44a9 9 0 00-1-6.11l-1.24-2.23a1.17 1.17 0 01-.15-.58l-.06-4a1.22 1.22 0 00-1.52-1.16l-5.59-1.35a1.2 1.2 0 00-.91.97z" class="cls-112"/><path fill="#7f7fbb" d="M286.488 256.888l-23.23-10.92-14.15-3.62-20.72-1.55s-9.26 2.66-9.16 9.36c.06 3.65 2.36 50.78 3.42 72.6h14l4-65.87h45.84z" class="cls-118"/><path fill="#7474b4" d="M223.158 333.128h12.84l.69-10.36h-14c.26 6.36.47 10.36.47 10.36z" class="cls-152"/><path fill="#7979b7" class="cls-153" d="M290.158 256.888h-49.52l9.71-13.46 12.91 2.54 26.9 10.92z"/><path fill="#2b3c8f" d="M212.948 324.028c0 3.69.55 25.3-13.68 29.13a1.22 1.22 0 00-.88 1.31l.22 2a1.23 1.23 0 001.35 1.08l9.32-1a1.19 1.19 0 00.71-.34l9.47-9.21a1.22 1.22 0 012.06.74l.71 6.41a1.23 1.23 0 001.35 1.08 1.22 1.22 0 001.08-1.11l1.11-12.63a9 9 0 00-1.62-6l-1.48-2.08a1.09 1.09 0 01-.21-.55l-1.37-8.22a1.23 1.23 0 00-1.64-1l-5.7-.73a1.23 1.23 0 00-.8 1.12z" class="cls-112"/><path fill="#7f7fbb" d="M311.928 260.808a19.12 19.12 0 01-7 6.45 31.23 31.23 0 01-14.8 3.78c-6.58-.05-71-9.18-71-9.18s5.73 57.54 5.72 58.75l.5 4.55-15.62 1.24c-1.4-14.79-6.4-54.87-6.93-63.23-.73-11.42-3.22-18.52 1.78-20.58s73-9.21 73-9.21l16.08 1.43 6.47 1.46 11.78 2.64s.44 1.32.91 3.36c1.13 4.68 2.43 13.21-.89 18.54z" class="cls-118"/><path fill="#7f7fbb" d="M311.928 260.808a19.12 19.12 0 01-7 6.45 31.23 31.23 0 01-14.8 3.78c-5.75 0-58.11-6.5-68.64-8.68a1.75 1.75 0 00-2.1 1.93c1 8.26 6.18 69.08 6.18 69.08l-4.06.4c.17-2.57-.67-9.7-.76-12.88-.6-20.09-7-56.61-8.84-66.73a2.49 2.49 0 012.86-2.91c13 2.1 68.88 7 77.43 4 10-3.43 7.75-19 7.75-19h.17l11.78 2.64s.44 1.32.91 3.36c1.14 4.7 2.44 13.23-.88 18.56z" class="cls-118"/><path fill="#7f7fbb" d="M311.928 260.808a19.12 19.12 0 01-7 6.45l-.77-2a5.64 5.64 0 011.19-6c4.64-4.65 4.69-12 4.47-15.15a1.58 1.58 0 011.42-1.69l1.57-.16c1.14 4.69 2.44 13.22-.88 18.55z" class="cls-118"/><path fill="#7474b4" d="M225.348 325.128l.57 8.66-15.45 1s-.34-3.55-.85-9l15.73-.66z" class="cls-152"/><path fill="#f18c74" d="M396.438 167.568l-.38.5c-.24.31-.59.74-1 1.24a28.65 28.65 0 01-3.55 3.37c-.36.27-.71.57-1.07.81s-.73.51-1.09.72a11 11 0 01-1.08.62c-.35.17-.67.37-1 .5a12.11 12.11 0 01-1.57.6l-.61.2a1 1 0 01-.46.06 40.2 40.2 0 01-13.54 2.76c-5.07 3.82-24 23-34.16 30.53-2.55 1.89-7.62 1.42-8.64-1.59l-5.8-16.43-3.71-10.47-1.54-4.39 15.84-8.22 2 8.22.49 2.63 1.25 6.68.81 4.3a2.25 2.25 0 003.47 1.46l27.54-18.34a9.28 9.28 0 019-3.28c.09-.5.18-1.15.26-1.8.19-1.51.33-3 .33-3a.91.91 0 011.81.07s0 1.56-.05 3.13c0 .75-.06 1.5-.13 2.1l1 .26a16.91 16.91 0 00.77-2.51 19.32 19.32 0 00.4-2.45c.07-.69.07-1.11.07-1.11a.84.84 0 011.68-.07v1.27a20.36 20.36 0 01-.2 2.72 18.27 18.27 0 01-.58 2.82h.12l.54-.53c.46-.46 1-1 1.52-1.62.27-.3.53-.62.78-.94.11-.16.24-.33.33-.49l.23-.36s.07-.15.1-.26v-.15a3.32 3.32 0 000-.56c0-.41 0-.82-.08-1.23-.06-.81-.16-1.58-.25-2.23-.18-1.32-.34-2.19-.34-2.19a.82.82 0 01.65-.94.83.83 0 01.93.61s.2.89.47 2.22c.12.67.27 1.45.39 2.31.05.43.11.88.14 1.36a6.31 6.31 0 010 .77v.5a2 2 0 01-.11.38c-.06.16-.14.34-.2.48l-.19.34c-.12.23-.26.42-.39.63-.27.4-.54.76-.81 1.11-.55.69-1.07 1.3-1.53 1.81a.75.75 0 01.16.11l.85.55c.28-.1.56-.26.87-.39s.63-.33 1-.51.66-.4 1-.62.67-.46 1-.69a26.46 26.46 0 003.4-3c.87-.9 1.37-1.53 1.37-1.53a1 1 0 011.34-.17.94.94 0 01.15 1.32z" class="cls-154"/><path fill="#f18c74" class="cls-154" d="M336.778 185.908l-14.33 5.55-3.71-10.47 16.79-1.76 1.25 6.68z"/><path fill="#2b3c8f" d="M293.418 110.968s1.11-6.3 3.87-8.86 9.34-3.37 14.71-2.43 12.79 2.56 18.49 17.08 3 33.75 2.36 34.83-22.18 4.92-27.26 3.94-20.08-4.19-19.83-12.47 4.65-17 4.65-17l3.01-15.09z" class="cls-112"/><path fill="#e8444e" d="M338.388 183.688l-16.89 3.8-.18.28c-.71 1.13-3.37 5.74-5.45 14.14-2.43 9.76-3.21 39.54-3.21 39.54s-3.67-2.06-6.16-3.12c-.38-.17-6-.91-6.41-1.08-9-3.68-19.88-3-22.48-3.87 1.16-5.34 1.39-42.4-2.33-49.14s-2.32-11.83-2.32-11.83l-1.38-2-2-18.58s-1.49.37 10.13-1.95a81.45 81.45 0 019.51-1.28 101.32 101.32 0 0114-.11s22.25 1.78 27.45 7c7.72 7.69 7.72 28.2 7.72 28.2z" class="cls-155"/><path fill="#f18c74" d="M321.638 151.418s-9.28 13.75-20.74 12.58-11.52-15.46-11.52-15.46l6.86-1.42.06-7.11v-4.55s-.24.06-.63.12c-1.78.25-8.72 1-9.29-4.49-.67-6.53-.48-10.39 2-13.41 2.43-2.72 3-5.54 4.08-6.41s2.72-5 6.9-5.93a15.75 15.75 0 017.09 0s-.67 8.65 5.05 15.25a2.75 2.75 0 013.89 1.51c1.16 2.87-3.5 6.66-7 5.2.68 3.6 1.94 20.59 1.94 20.59s9.28 2.65 11.31 3.53z" class="cls-154"/><path fill="#ea7760" d="M299.438 138.958a28.9 28.9 0 01-3.14 1.05v-4.55s-.24.06-.63.12 5.48-1.57 6.64-2.83 1.71 4.38-2.87 6.21z" class="cls-156"/><circle fill="#fff" r="2.13" cy="128.448" cx="309.168" class="cls-31"/><path fill="#e8444e" d="M315.868 201.908c-2.43 9.76-3 40.36-3 40.36s-.67-12.21-3.15-13.27c-.38-.17-.78-.32-1.18-.5.9-4.68 2.75-12.16 2.56-15-.69-10.6 2.33-28.35 3.9-36.62a1.26 1.26 0 012.42-.18l3.92 11.05c-.73 1.15-3.39 5.76-5.47 14.16z" class="cls-155"/><path fill="#95b6ef" d="M200.468 149.178l-1.27-1a16.47 16.47 0 002.35-4.49 15.74 15.74 0 001-5.49h1.59a17.09 17.09 0 01-1.1 6.07 18.65 18.65 0 01-2.57 4.91z" class="cls-110"/><path fill="#ef798a" d="M196.308 139.818l.64.25.92-1-1-1-.56 1.75z" class="cls-157"/><path fill="#f18c74" d="M193.108 134.688a5.91 5.91 0 01-.92-1.08l-3.54-5.32a3.54 3.54 0 00-1.83-1.4l-7.23-2.43-1.76 4.32s12.6 8.84 12.7 8.83 4.19 1.58 5.79 2.21l.53-1.67-3.74-3.46zM176.528 129.818l-.23 2.45a2.74 2.74 0 001 2.37l3.15 2.55a5.39 5.39 0 003.62 1.18h.28l1-3.58-3.43-2.76-5-3.63-.39 1.42zM272.608 152.448l-.93 16.23c-2.07.13-6.31.37-11.41.57l-6.7-15.64 19.04-1.16zM170.648 139.268c-.56-3-7.08 1.59-11.14-.62a13.77 13.77 0 00-8.54-1.28l-7.53-.65-39.28-9.2a5.65 5.65 0 01-4-4l-1.63-20.69-1.44-5-19.54 5 8.07 32.18a7.09 7.09 0 005.76 5.28 311.07 311.07 0 0044.44 4.08c0 .07 5.26.8 5.28.87 21.67 5.11 30.1-2.92 29.55-5.97z" class="cls-154"/><path fill="#2b3c8f" d="M36.488 145.028s-15 2.38-18.27 22.32c0 0 13.23-5.9 20.37-13.42 4.14-6.27 3.26-6.64 3.26-6.64l-5.36-2.26z" class="cls-112"/><path fill="#f0ecec" d="M99.458 97.128l-13.75 3.54-1.86.08-23.57 43.76-24.32-1.51.53-23.82-8.9 2.78a92.23 92.23 0 00-4.55-13.79c-3.08-7.28-9.31-38.78 2-44.81 6.11-3.26 15.52-7.24 26.11-8.13 8.54-.7 17.48-.21 25.15 2.17l1.17.38c17.23 5.95 21.99 39.35 21.99 39.35z" class="cls-158"/><path fill="#f0ecec" d="M86.868 99.128l11.43-3.72a1.68 1.68 0 012.15 1.17l1.66 6.34a1.67 1.67 0 01-1.06 2l-13.09 4.71a1.68 1.68 0 01-2.25-1.58v-7.33a1.68 1.68 0 011.16-1.59z" class="cls-158"/><path fill="#2b3c8f" d="M91.578 350.318v.94a2.24 2.24 0 01-2.24 2.25h-16.47a2.23 2.23 0 01-1.27-.41l-4.82-3.36a2.24 2.24 0 00-3.48 1.44l-.09.49a2.25 2.25 0 01-2.21 1.84h-5.13a2.24 2.24 0 01-2.23-2.24v-7.15a19.65 19.65 0 01.44-3.27c.71-3.66 2.1-8.29 2.47-9.59l9.59-.9a2.23 2.23 0 012.45 2.16l.09 2.78a7.74 7.74 0 00.07.83c.61 4 4.52 7.53 5.85 8.65a2.24 2.24 0 001 .47l14.18 2.88a2.21 2.21 0 011.8 2.19z" class="cls-112"/><path fill="#2b3c8f" d="M91.578 350.318v.94a2.24 2.24 0 01-2.24 2.25h-16.47a2.23 2.23 0 01-1.27-.41l-4.82-3.36a2.24 2.24 0 00-3.48 1.44l-.09.49a2.25 2.25 0 01-2.21 1.84h-5.13a2.24 2.24 0 01-2.23-2.24v-7.15a19.65 19.65 0 01.44-3.27h9.26c.61-3.49 3.28-4.49 5.41-4.72.61 4 4.52 7.53 5.85 8.65a2.24 2.24 0 001 .47l14.18 2.88a2.21 2.21 0 011.8 2.19z" class="cls-112"/><path fill="#292a5d" class="cls-113" d="M53.048 323.618v10.5h18.51l.48-11.37-18.99.87zM79.378 217.648l-26.97-7.71.64 113.68 18.99-.87 7.34-105.1z"/><path fill="#2b3c8f" d="M4.748 354.018a64.7 64.7 0 000 3.81c10.51 2.18 22.08.64 22.08.64s-.06-1.6-.07-3.38c-8.97 1.13-18.65-.44-22.01-1.07zM9.808 344.558s-.41-2 3.39-4.28c2.74-1.63 6.17-.92 7.89-.39a39 39 0 01-.13-7.86l1.3-4.37-13.1.54s-1.21 5.92-2.91 12.24a34.56 34.56 0 00-.83 4.34 18.46 18.46 0 014.39-.22z" class="cls-112"/><path fill="#2b3c8f" d="M26.788 351.678c.16-2.26-1.54-2.18-4.13-6.55a14.11 14.11 0 01-1.57-5.24c-1.72-.53-5.15-1.24-7.89.39-3.8 2.26-3.39 4.28-3.39 4.28a18.46 18.46 0 00-4.39.22 91.47 91.47 0 00-.67 9.24c3.32.63 13 2.2 22 1.07-.04-1.21-.03-2.49.04-3.41z" class="cls-112"/><path fill="#292a5d" d="M3.548 334.128h21.79s.69-4 1.86-10.5c-5-.3-15.65-1-21.47-1.33-.86 4.73-1.62 8.75-2.18 11.83z" class="cls-113"/><path fill="#292a5d" d="M63.308 167.348l4.66-21.57-26.12 1.51-5.89.75s-21.54 126.38-30.23 174.25c5.82.37 16.45 1 21.47 1.33 4.48-25 16-90.43 22.93-107.43 8.69-21.43 13.18-48.84 13.18-48.84z" class="cls-113"/><path fill="#2b3c8f" class="cls-112" d="M49.128 142.898l-13.17.13v5.01l14.17.63-1-5.77z"/><path fill="#2b3c8f" d="M89.158 135.438s.52-46.74-4.57-61.14c-3.5-9.92-5.85-15.3-6.76-16.69a1.25 1.25 0 00-.72-.51 1.24 1.24 0 00-1.47 1.68 67.83 67.83 0 015 27.61 1.26 1.26 0 01-1.33 1.21l-28.13-1.78a1.25 1.25 0 01-1.17-1.28l.89-28.29a1.25 1.25 0 00-1.25-1.29h-1.38a1.24 1.24 0 00-1.24 1.2l-2 54.26-2 96.3-.94 45c4.61.85 16.46 2.95 49.52-1.05l-2.45-115.23z" class="cls-112"/><path fill="#f0ecec" d="M50.108 106.428s-11.62-40.22-20.06-42.66-13.28 7.59-13.46 16.2 6.22 32.06 8 35.73 11.4-3.53 11.4-3.53l14.12-5.74z" class="cls-158"/><path fill="#f18c74" d="M140.638 145.128a101.52 101.52 0 01-25.86-2.42 11.19 11.19 0 00-4.12-.22c-18.43 2.32-41.84 6.6-60.32 6.49a6.08 6.08 0 01-5.12-3.09c-2.06-3.5-6.85-11.76-11.14-19.61-2-3.71-3.94-7.33-5.4-10.31a77.5 77.5 0 01-.65-1.34 173.15 173.15 0 0119.86-8.61l2.12 5.38.11.28 1.8 5 5 14.06a4.57 4.57 0 003.87 2.49l52.78 2.4s2.14-4.73 6-4.86 6-3 6.09-1.43c.18 2.12-5.28 4.13-5.36 6.57 0 1.16 1.33 3.91 6.55 5.3 8.23 1.1 6.28.94 8.43 1.11 3.15.25 4.87.51 5.79 1.21a.88.88 0 01-.43 1.6z" class="cls-154"/><path fill="#f0ecec" d="M51.378 105.598l1.35 7.25a2.05 2.05 0 01-1.31 2.3l-22.63 8.31a1.51 1.51 0 01-1.84-.66l-4.15-7.14a1.82 1.82 0 01.72-2.53c4.66-2.49 18-9.2 26.07-9.08a1.88 1.88 0 011.79 1.55z" class="cls-158"/><path fill="#e6e6e6" d="M72.298 59.418l1.25-9.33s-14.78-2.64-22.72 0a77 77 0 006.29 10.65l15.18-1.32z" class="cls-45"/><path fill="#f18c74" d="M69.348 52.438v13.3h-16a13.87 13.87 0 01-2.57-4.47l5.85-26.91 13.34 9v.13l-.62 8.95z" class="cls-154"/><path fill="#ef806c" d="M69.348 52.438l.66-8.92c-3.16-1.49-11-5-11.89-4.08-1.63 1.6.7 13.69 11.23 13z" class="cls-159"/><path fill="#f18c74" d="M78.398 12.698s4.38 18.32.6 26.65c-3 6.68-8.78 7-14.44 5.66s-8.58-6.41-9.79-12.85a40.19 40.19 0 01-.51-11.59l6.67-9.19 17.47 1.32z" class="cls-154"/><path fill="#fff" d="M67.588 35.668h8.69a4.19 4.19 0 01-4.35 3.61 4.37 4.37 0 01-4.34-3.61z" class="cls-31"/><path fill="#e8444e" d="M50.818 27.218s3.59-.45 4.33.64a4.71 4.71 0 01.76 2.41c0 1.31 1.08 5.07 1.89 3.85s.61-6.07 1.11-7.79 4.43-2.18 6-11.34l11.59-1.06a2.17 2.17 0 012.35 1.85l1.2 8.27s7.08-3 8.38-10.4-3.93-6.81-3.93-6.81a5.85 5.85 0 00-.91-5.26c-1.92-2.62-8.28-1.41-10.1-.4-1.32.73-7.66 4-11.06 5.67l-2.17 1.1s-3.33-2.93-6.67-1.92-6.7 10.98-2.77 21.19z" class="cls-155"/><path fill="#f0ecec" d="M50.828 50.128l9.21 10.28-4.39 12.27a.71.71 0 01-1.31 0l-6.75-15.9 3.24-6.65zM68.888 58.688l2.64 14.78a.43.43 0 00.82.06l5.34-15.35-4.14-8.09-4.66 8.6z" class="cls-158"/><path fill="#e8444e" d="M50.818 27.218s3.59-.45 4.33.64a4.71 4.71 0 01.76 2.41c0 1.31 1.08 5.07 1.89 3.85s.61-6.07 1.11-7.79 4.43-2.18 6-11.34c-.2-2.41-.8-5.77-2.48-8.14l-2.17 1.1s-3.33-2.93-6.67-1.92-6.7 10.98-2.77 21.19z" class="cls-155"/><path fill="#f18c74" d="M55.778 27.008s-5.46-3.22-6.26 1.61 1.61 8.89 6.26 7.38a73.75 73.75 0 000-8.99z" class="cls-154"/><path fill="#2b3c8f" d="M138.288 123.258l-1.6-1.76a28.49 28.49 0 00-9.1 5.65c-4 3.68-5.61 8.28-5.1 10.11s3.47 1.25 3.47 1.25l8.38-10.53 3.95-4.72z" class="cls-112"/><path fill="#292a5d" d="M170.798 133.648c-.22.71-.44 1.37-.65 2a66.38 66.38 0 01-3.69 9.25l-7.42-1.7-8.58-2-20.41-7-1-3.07s4.44-7.09 7.68-9.63c-.04 0 21.1 3.47 34.07 12.15z" class="cls-113"/><path fill="#2b3c8f" d="M165.908 145.488l.78-1.23 4.11-10.61-.15 5.62a1.92 1.92 0 01-.11.54l-3.21 8-1.42-2.32z" class="cls-112"/><path fill="#fff" d="M134.218 130.818c-.11 0 5.28-7.81 5.28-7.81a62.06 62.06 0 019.71 2.49l-4.58 8.41s-6.4-2.22-10.41-3.09z" class="cls-31"/><path fill="#2b3c8f" d="M170.108 135.648a66.38 66.38 0 01-3.69 9.25l-7.42-1.7-10.46-5.17-4.54-2.74 5.18-9.78s4.58 2.27 6.05 3.77c.53.16 9.93 3.12 14.88 6.37z" class="cls-112"/><path fill="#2b3c8f" d="M155.278 129.288a18.13 18.13 0 01-1.09 3.75 11.55 11.55 0 01-3.27 4.2l-2.34.79-4.54-2.74 5.18-9.78s4.58 2.27 6.05 3.77l.01.01z" class="cls-112"/><path fill="#d7d0d3" d="M154.458 137.778a.87.87 0 11-1.53-.81.92.92 0 011.22-.47.93.93 0 01.31 1.28zM148.968 133.308a.94.94 0 01-1.3.22 1 1 0 011.25-1.54 1 1 0 01.05 1.32zM151.508 134.618a.87.87 0 11-1.7-.33 1 1 0 011-.81.93.93 0 01.7 1.14zM151.848 128.878a.87.87 0 11-.49-1.22.93.93 0 01.49 1.22zM153.918 130.498a.87.87 0 11-1.32-1.12.87.87 0 111.32 1.12zM156.248 135.518a.87.87 0 11-.3-1.28.93.93 0 01.3 1.28zM157.198 133.248a.88.88 0 11-1.59-.7.88.88 0 111.59.7zM158.108 130.818a.86.86 0 01-1.12.5.88.88 0 01-.49-1.13.86.86 0 111.61.63zM157.678 138.938a.87.87 0 11-1.53-.8.87.87 0 111.53.8zM159.478 136.678a.94.94 0 01-1.23.48 1 1 0 111.23-.48zM160.418 134.408a.87.87 0 11-.39-1.25.92.92 0 01.39 1.25z" class="cls-114"/><path fill="#e8444e" d="M161.328 131.978a.86.86 0 11-1.61-.63.86.86 0 111.61.63z" class="cls-155"/><path fill="#d7d0d3" d="M161.268 140.048a.87.87 0 11-.4-1.1.83.83 0 01.4 1.1zM162.608 137.838a.87.87 0 11-1.53-.8.94.94 0 011.23-.48.93.93 0 01.3 1.28zM163.558 135.408a.86.86 0 11-1.58-.69.86.86 0 111.58.69z" class="cls-114"/><path fill="#d0d731" d="M164.308 133.128a.88.88 0 01-1.13.5.88.88 0 111.13-.5z" class="cls-160"/><path fill="#d7d0d3" d="M164.678 141.128a.87.87 0 01-1.17.36.86.86 0 01-.36-1.17.85.85 0 011.16-.35.86.86 0 01.37 1.16zM165.878 139.058a.87.87 0 11-.35-1.18.87.87 0 01.35 1.18zM166.988 136.798a.87.87 0 01-1.58-.7.87.87 0 011.58.7z" class="cls-114"/><path fill="#62bfb9" d="M167.558 134.698a.86.86 0 11-1.61-.63.86.86 0 011.12-.5.87.87 0 01.49 1.13z" class="cls-161"/><path fill="#292a5d" d="M129.008 131.128s13.79 1.39 38.1 13.08l.22 3.63s-23.44-2.95-34-7.2c0 0-4.44 4.2-9.14-.07-4.17-3.78.07-8.91 4.82-9.44z" class="cls-113"/><circle fill="#cabeba" transform="rotate(-78.5 1238.882 259.67)" r="1.88" cy="-859.432" cx="1137.519" class="cls-117"/><path fill="#d7d0d3" d="M152.758 132.468c-.26.44-1.28.3-2.28-.29s-1.59-1.44-1.33-1.87 1.28-.31 2.27.29 1.6 1.44 1.34 1.87z" class="cls-114"/><path fill="#2b3c8f" d="M130.708 130.338s4.76-6.82 6.2-8.06l2.06.51-5.31 7.87-2.95-.32z" class="cls-112"/><path fill="#7f7fbb" d="M166.668 144.208h-.09c-.08 0-8.44-4.07-18-7.58a128.69 128.69 0 00-19.63-5.27.21.21 0 01-.16-.24.2.2 0 01.23-.17 130.15 130.15 0 0119.7 5.3c9.56 3.51 17.94 7.55 18 7.59a.2.2 0 01-.09.39l.04-.02z" class="cls-118"/><path fill="#f18c74" d="M116.758 131.688s3.09-2.25 11.51-3.66c.44-.07 1.44.57.54 1.72s-6.47 2.37-8.36 5.62c-.65 1.13-5.6-2.05-3.69-3.68z" class="cls-154"/><g data-name="m贸vil blanco"><path fill="#e0e0e0" d="M162.218 103.878a2.87 2.87 0 012.08-3.47l12-3a2.87 2.87 0 013.47 2.08l7.52 30.12a2.84 2.84 0 01-2.07 3.46l-12 3a2.84 2.84 0 01-3.46-2.07" class="cls-39"/><rect transform="rotate(-14.03 -1134.69 200.068)" fill="#fff" rx="2.61" height="35.61" width="16.56" y="418.638" x="147.618" class="cls-31"/><path stroke-width=".07" stroke="#e6e7e8" stroke-miterlimit="10" fill="none" d="M176.858 97.938l-1.87.47a.81.81 0 00-.6.62l-.06.27a.82.82 0 01-.6.63l-6 1.49a.82.82 0 01-.82-.27l-.18-.21a.83.83 0 00-.83-.27l-1.79.46a1.87 1.87 0 00-1.37 2.28l7.64 30.58a1.89 1.89 0 002.28 1.37l12.8-3.2a1.88 1.88 0 001.36-2.28l-7.71-30.57a1.88 1.88 0 00-2.25-1.37z" class="cls-162"/><path fill="#f1f2f2" d="M171.778 99.548l-2.47.61a.11.11 0 00-.08.13.11.11 0 00.13.08l2.47-.62a.11.11 0 00.08-.13.11.11 0 00-.13-.07z" class="cls-71"/></g><path fill="#2e3895" d="M166.488 103.258v.29a.22.22 0 01-.18.24c-.15 0-.22 0-.22-.2s.15-.3.4-.33zm.14-.45h-.16v.32h-.15c-.24.06-.42.21-.41.45s.16.35.41.29a.4.4 0 00.34-.44l-.03-.62zM164.938 103.658c-.25 0-.45.11-.44.2s.4-.08.46.15-.51.4-.66.39v-.11c.25 0 .5-.07.47-.21s-.4.08-.45-.15.2-.32.64-.36l-.02.09zM165.648 103.718a.31.31 0 01-.06.19.29.29 0 01-.16.11c-.14 0-.22 0-.22-.19a.29.29 0 01.22-.3c.13-.03.22.05.22.19zm-.23-.31a.48.48 0 00-.39.47c0 .22.16.33.41.27a.48.48 0 00.39-.47c0-.22-.17-.33-.41-.27zM168.388 103.408l-.22.05a3.82 3.82 0 01-.72-.55h.16c.23.16.78.5.78.5zM168.258 101.988v-.22l.08.2.18-.12-.09.21.17.08-.19.06v.21l-.15-.12-.12.18v-.22h-.2l.17-.16-.12-.16.27.06zM168.928 102.908a.31.31 0 01-.22.31c-.14 0-.23 0-.23-.19a.31.31 0 01.23-.31c.13-.04.22.04.22.19zm-.23-.32a.5.5 0 00-.41.47c0 .23.18.34.42.28a.51.51 0 00.41-.48c0-.22-.18-.33-.42-.27z" class="cls-72"/><path fill="#da0001" d="M167.448 103.578a3.83 3.83 0 00.77-1.1 1.13 1.13 0 01-.77 1.1z" class="cls-163"/><path fill="#3b3f89" d="M167.158 103.128h.15c.02 0-.25.19-.37.2a.29.29 0 01.22-.25v.05zm.3 0c0-.1-.12-.16-.31-.11a.46.46 0 00-.38.55c0 .16.2.25.43.19a.44.44 0 00.25-.14c-.2.07-.45.11-.51-.11.29 0 .57-.16.52-.36v-.02z" class="cls-164"/><path fill="#2e3895" class="cls-72" d="M176.957 100.506l1.203-.3.02.077-1.204.3zM177.049 100.854l1.203-.3.02.077-1.204.3zM177.131 101.204l1.203-.3.02.077-1.203.3z"/><path stroke-width=".07" opacity=".25" stroke="#4a4a98" stroke-miterlimit="10" fill="none" class="cls-165" d="M164.248 105.218l14.39-3.6"/><g clip-path="url(#b)" class="cls-166" data-name="Restaurante"><rect transform="rotate(-15.12 -1131.45 224.468)" fill="#f6f6f6" rx=".98" height="7.46" width="12.04" y="451.498" x="151.768" class="cls-61"/><path fill="#e30613" class="cls-76" d="M166.765 111.035l12.115-3.274.123.454-12.116 3.273z"/><path opacity=".48" fill="#31275b" class="cls-77" d="M167.018 110.268l.53 1.95.11-.24.73.64.06.05-.01-.06-.36-1.02 1.13-.34-1.15-.32.48-1.04-.96.62-.58-1.1.02.86z"/><path fill="#fff" class="cls-31" d="M167.618 112.488l.13-.53.88.6-.51-1.04 1.07-.44-1.16-.2.34-1.08-.87.71-.73-1.17-1.16-1.94 1.71 6.38.3-1.29z"/><path fill="#1c2f76" d="M177.368 112.128l-.11.82-.2.05-.31-.54s0-.05-.06-.05a.71.71 0 00-.21 0l.32-.09a.09.09 0 01.11 0l.2.41.06-.55.2-.05zm.91.28c-.05-.19-.32-.13-.34-.22s0-.06.06-.08a.48.48 0 01.2 0v-.16a.62.62 0 00-.18 0c-.19.05-.3.18-.26.32s.14.14.22.16.11 0 .12.06 0 .09-.09.1a.39.39 0 01-.21 0v.17a.6.6 0 00.22 0c.2-.05.3-.18.26-.34m.56.11h.18l-.35-.69h-.16a.08.08 0 00-.07.08l-.1.75.2-.05v-.12l.24-.06.06.09zm-.28-.2v-.31l.13.26-.13.05zm-.92-.26v.77l-.19.05v-.77l.19-.05z" class="cls-78"/><path fill="#2a295c" d="M176.108 107.468v.22a.16.16 0 01-.14.19c-.12 0-.17 0-.17-.15s.1-.23.3-.26m.11-.36h-.13v.22h-.12a.38.38 0 00-.32.36.24.24 0 00.34.22.31.31 0 00.26-.34l-.03-.46zM174.888 107.798c-.19 0-.35.1-.34.16s.32-.07.36.11-.39.32-.51.32v-.08c.19 0 .39-.08.37-.18s-.32.07-.36-.11.15-.26.49-.3l-.01.08zM175.448 107.838a.22.22 0 01-.16.24c-.11 0-.18 0-.18-.14a.25.25 0 01.17-.25.14.14 0 01.17.15m-.18-.24a.37.37 0 00-.3.38c0 .17.13.25.32.2a.39.39 0 00.31-.38c0-.17-.14-.25-.33-.2M177.598 107.548l-.16.05a3 3 0 01-.58-.42h.12c.19.15.62.41.62.41M177.488 106.438l.03-.18.06.16.14-.1-.07.17.14.06-.15.05.04.17-.12-.1-.1.15.01-.18-.16.02.12-.12-.1-.13.16.03zM178.018 107.128a.23.23 0 01-.17.24c-.11 0-.18 0-.18-.14a.25.25 0 01.17-.25c.11 0 .18 0 .18.15m-.18-.25a.39.39 0 00-.31.39c0 .17.14.25.33.2a.39.39 0 00.31-.38c0-.17-.14-.26-.33-.21" class="cls-34"/><path fill="#e30613" d="M176.868 107.698a3.12 3.12 0 00.59-.87.91.91 0 01-.59.87" class="cls-76"/><path fill="#2a295c" d="M176.628 107.318h.11c.01 0-.18.16-.28.16a.23.23 0 01.17-.2m.24 0c0-.08-.1-.13-.24-.09a.37.37 0 00-.3.45c0 .12.16.19.35.14a.38.38 0 00.19-.12c-.16.06-.36.1-.4-.07.23 0 .45-.14.41-.29" class="cls-34"/><rect transform="rotate(-15.12 -1131.76 224.258)" opacity=".2" fill="#8282dc" rx=".16" height=".32" width="6.12" y="455.938" x="153.468" class="cls-79"/><rect transform="rotate(-15.12 -1132.08 223.878)" opacity=".2" fill="#8282dc" rx=".1" height=".32" width="2.57" y="456.578" x="153.368" class="cls-79"/></g><circle fill="#3cdcc8" r="2.42" cy="123.008" cx="176.958" class="cls-35"/><rect transform="rotate(-14.03 -1135.13 199.488)" fill="#e6e6e6" rx=".13" height=".46" width="2.35" y="437.098" x="151.708" class="cls-45"/><rect transform="rotate(-14.03 -1134.86 200.138)" fill="#e6e6e6" rx=".13" height=".46" width="2.35" y="437.008" x="154.758" class="cls-45"/><rect transform="rotate(-14.03 -1134.6 200.798)" fill="#e6e6e6" rx=".13" height=".46" width="2.35" y="436.908" x="157.818" class="cls-45"/><rect fill="#292a5d" rx=".49" height="1.9" width="1.11" y="25.008" x="68.048" class="cls-113"/><rect fill="#292a5d" rx=".49" height="1.9" width="1.11" y="25.008" x="75.128" class="cls-113"/><path fill="#fff" d="M287.168 123.908l8.39 2.25a4.18 4.18 0 01-5.13 2.36 4.37 4.37 0 01-3.26-4.61z" class="cls-31"/><path fill="#2b3c8f" class="cls-112" d="M148.478 205.608h3.87v136.86h-3.87z"/><rect fill="#2b3c8f" rx="1.82" height="9.03" width="169.47" y="198.188" x="65.368" class="cls-112"/><path fill="#2b3c8f" d="M150.598 345.678h6c6 7.05 22.43 8.05 22.43 8.05v3.19h6.7v-3.34c0-2.56-1.53-4.63-3.44-4.68-6.45-.16-20.19-1.55-25.75-10.26h-12.26c-5.57 8.71-19.31 10.1-25.76 10.26-1.91.05-3.44 2.12-3.44 4.68v3.34h6.7v-3.19s16.42-1 22.43-8.05h6.39z" class="cls-112"/><path fill="#7f7fbb" d="M207.208 198.348c-8.49 0-15.83-3.89-18.25-9.69a1.63 1.63 0 01.5-2 1.07 1.07 0 011.58.62c2 4.78 8.65 8.12 16.17 8.12s14.06-3.29 16.12-8a1.08 1.08 0 011.6-.58 1.65 1.65 0 01.47 2c-2.5 5.71-9.8 9.53-18.19 9.53z" class="cls-118"/><path fill="#7f7fbb" d="M215.968 190.488h-.39a.87.87 0 01-.61-.3.85.85 0 01-.18-.65l1-6.25a.81.81 0 01.81-.69h5.51a.83.83 0 01.81.66 6.6 6.6 0 01-1.21 5c-1.21 1.49-3.14 2.23-5.74 2.23zm1.3-6.25l-.7 4.59a5.09 5.09 0 003.85-1.57 4.56 4.56 0 00.93-3l-4.08-.02z" class="cls-118"/><path fill="#7f7fbb" d="M206.578 195.318c6.46 0 11.7-5.64 11.7-12.59h-23.4c0 6.95 5.23 12.59 11.7 12.59z" class="cls-118"/><path fill="#2b3c8f" d="M136.938 179.818c0 2.14-2.3 3.87-5.15 3.87s-5.15-1.73-5.15-3.87 2.31-3.88 5.15-3.88 5.15 1.73 5.15 3.88z" class="cls-112"/><path fill="#7f7fbb" class="cls-118" d="M126.638 179.498h10.3v17.87h-10.3z"/><circle fill="#2b3c8f" r=".31" cy="178.538" cx="128.948" class="cls-112"/><path fill="#2b3c8f" d="M131.108 178.538a.31.31 0 11-.31-.31.31.31 0 01.31.31z" class="cls-112"/><circle fill="#2b3c8f" r=".31" cy="178.538" cx="132.738" class="cls-112"/><circle fill="#2b3c8f" r=".31" cy="178.538" cx="134.628" class="cls-112"/><circle fill="#2b3c8f" r=".31" cy="177.198" cx="129.958" class="cls-112"/><circle fill="#2b3c8f" r=".31" cy="177.198" cx="131.848" class="cls-112"/><path fill="#2b3c8f" d="M134.108 177.198a.31.31 0 11-.31-.31.31.31 0 01.31.31z" class="cls-112"/><ellipse fill="#2b3c8f" ry="3.88" rx="5.15" cy="179.818" cx="151.838" class="cls-112"/><path fill="#7f7fbb" class="cls-118" d="M146.688 179.498h10.3v17.87h-10.3z"/><circle fill="#2b3c8f" r=".31" cy="178.538" cx="148.998" class="cls-112"/><circle fill="#2b3c8f" r=".31" cy="178.538" cx="150.888" class="cls-112"/><circle fill="#2b3c8f" r=".31" cy="178.538" cx="152.788" class="cls-112"/><path fill="#2b3c8f" d="M154.988 178.538a.31.31 0 01-.31.31.31.31 0 010-.62.31.31 0 01.31.31z" class="cls-112"/><circle fill="#2b3c8f" r=".31" cy="177.198" cx="150.008" class="cls-112"/><path fill="#2b3c8f" d="M152.208 177.198a.31.31 0 01-.31.31.31.31 0 010-.62.31.31 0 01.31.31z" class="cls-112"/><circle fill="#2b3c8f" r=".31" cy="177.198" cx="153.798" class="cls-112"/><path fill="#2b3c8f" class="cls-112" d="M124.718 196.228h34.2v1.14h-34.2zM141.818 168.628a3.94 3.94 0 113.93-3.93 3.94 3.94 0 01-3.93 3.93zm0-6.45a2.52 2.52 0 102.52 2.52 2.52 2.52 0 00-2.52-2.52z"/><path fill="#2b3c8f" class="cls-112" d="M141.108 167.928h1.41v28.64h-1.41z"/><path fill="#f18c74" d="M273.048 152.428v16.16l-1.37.09c-2.07.13-6.31.37-11.41.57-7.46.3-16.77.51-23.82.12a7.89 7.89 0 01-3.8-1.24c-6.55-4.23-30-19.39-36.76-23.81a6.57 6.57 0 00-3.63-1.08c-1.81 0-4.29-.32-5.71-1.91a36.64 36.64 0 01-4.74-7.61l-6.46-5.53a1.68 1.68 0 01-.45-1.94.92.92 0 011.27-.45l10.94 5.43 7.54 5.58 2.15 1.59.71.53 5.41 2.48c3.16 1.07 5 1.79 5 1.79l27.86 10.33a13.61 13.61 0 005.51.82l12.3-.74 19-1.16.46-.02z" class="cls-154"/><path fill="#95b6ef" d="M196.978 151.508a1.94 1.94 0 01-.71-.13c-1.14-.4-1.8-1.73-1.87-3.75a17.09 17.09 0 011.1-6.07c1.49-4.22 4.3-8 6.78-7.14 1.14.4 1.81 1.73 1.87 3.75h-1.59c0-1.5-.47-2.18-.81-2.3-.93-.33-3.24 1.91-4.75 6.17a15.74 15.74 0 00-1 5.49c0 1.51.47 2.18.81 2.3s1.34-.31 2.4-1.68l1.27 1c-1.19 1.55-2.37 2.36-3.5 2.36z" class="cls-110"/><path fill="#3cdcc8" class="cls-35" d="M137.348 130.498l3.67-6.05 3.35.63-3.75 6.35-3.27-.93z"/><path fill="#e8444e" d="M289.198 148.558c-2.47 2.24-13.32 13.17-16.5 26.35h-10.73l-2.3-23.4s16.19-2.95 29.53-2.95z" class="cls-155"/><rect transform="rotate(23.07 -911.192 -653.013)" fill="#2b3c8f" rx=".69" height="2.77" width="1.38" y="-419.462" x="496.608" class="cls-112"/><rect transform="rotate(26.18 -866.232 -719.202)" fill="#2b3c8f" rx=".69" height="2.77" width="1.38" y="-483.362" x="546.738" class="cls-112"/><path fill="#2b3c8f" d="M307.228 105.888c-2.22 2.08-10.61 6.77-14.24 4.13a6.15 6.15 0 01-2.08-6.32c1.16-4.08 7-5 10.39-4.58.37 0 8.1 2 8.6 4.52.31 1.59-1.56 1.2-2.67 2.25z" class="cls-112"/><path fill="#fff" d="M175.548 123.398l.9 1.2a.12.12 0 00.22-.06 6.22 6.22 0 011.16-3.31c.09-.12-.12-.24-.21-.12a6.35 6.35 0 00-1.18 3.43l.22-.06-.9-1.2c-.1-.12-.3 0-.21.12z" class="cls-31"/></g></g></svg>